HIERARCHY
ROOT Hips
{
	OFFSET 0.000000 0.000000 0.000000
	CHANNELS 6 Xposition Yposition Zposition Xrotation Yrotation Zrotation
	JOINT Chest
	{
		OFFSET 0.000000 9.585900 0.002600
		CHANNELS 3 Xrotation Yrotation Zrotation
		JOINT Chest2
		{
			OFFSET 0.000000 9.601200 -0.005300
			CHANNELS 3 Xrotation Yrotation Zrotation
			JOINT Chest3
			{
				OFFSET 0.000000 9.561800 0.000000
				CHANNELS 3 Xrotation Yrotation Zrotation
				JOINT Chest4
				{
					OFFSET 0.000000 9.552100 0.000000
					CHANNELS 3 Xrotation Yrotation Zrotation
					JOINT Neck
					{
						OFFSET 0.000000 14.453000 0.000000
						CHANNELS 3 Xrotation Yrotation Zrotation
						JOINT Head
						{
							OFFSET 0.000000 8.936500 -0.011300
							CHANNELS 3 Xrotation Yrotation Zrotation
							End Site
							{
								OFFSET 0.000000 0.000000 0.000000
							}
						}
					}
					JOINT RightCollar
					{
						OFFSET -2.921100 9.558500 0.000000
						CHANNELS 3 Xrotation Yrotation Zrotation
						JOINT RightShoulder
						{
							OFFSET -13.519700 0.000000 0.000000
							CHANNELS 3 Xrotation Yrotation Zrotation
							JOINT RightElbow
							{
								OFFSET 0.000000 -29.696600 0.000000
								CHANNELS 3 Xrotation Yrotation Zrotation
								JOINT RightWrist
								{
									OFFSET 0.000000 -24.004700 0.000000
									CHANNELS 3 Xrotation Yrotation Zrotation
									End Site
									{
										OFFSET 0.000000 0.000000 0.000000
									}
								}
							}
						}
					}
					JOINT LeftCollar
					{
						OFFSET 2.921100 9.558500 0.000000
						CHANNELS 3 Xrotation Yrotation Zrotation
						JOINT LeftShoulder
						{
							OFFSET 13.519700 0.000000 0.000000
							CHANNELS 3 Xrotation Yrotation Zrotation
							JOINT LeftElbow
							{
								OFFSET 0.000000 -29.696600 0.000000
								CHANNELS 3 Xrotation Yrotation Zrotation
								JOINT LeftWrist
								{
									OFFSET 0.000000 -24.004700 0.000000
									CHANNELS 3 Xrotation Yrotation Zrotation
									End Site
									{
										OFFSET 0.000000 0.000000 0.000000
									}
								}
							}
						}
					}
				}
			}
		}
	}
	JOINT RightHip
	{
		OFFSET -7.771700 -0.012900 -0.001300
		CHANNELS 3 Xrotation Yrotation Zrotation
		JOINT RightKnee
		{
			OFFSET 0.000000 -40.869801 0.001200
			CHANNELS 3 Xrotation Yrotation Zrotation
			JOINT RightAnkle
			{
				OFFSET 0.000000 -39.717899 0.002100
				CHANNELS 3 Xrotation Yrotation Zrotation
				JOINT RightToe
				{
					OFFSET 0.000000 -4.965400 11.033500
					CHANNELS 3 Xrotation Yrotation Zrotation
					End Site
					{
						OFFSET 0.000000 0.000000 0.000000
					}
				}
			}
		}
	}
	JOINT LeftHip
	{
		OFFSET 7.771700 -0.012900 -0.001300
		CHANNELS 3 Xrotation Yrotation Zrotation
		JOINT LeftKnee
		{
			OFFSET 0.000000 -40.869801 0.001200
			CHANNELS 3 Xrotation Yrotation Zrotation
			JOINT LeftAnkle
			{
				OFFSET 0.000000 -39.717899 0.002100
				CHANNELS 3 Xrotation Yrotation Zrotation
				JOINT LeftToe
				{
					OFFSET 0.000000 -4.965400 11.033500
					CHANNELS 3 Xrotation Yrotation Zrotation
					End Site
					{
						OFFSET 0.000000 0.000000 0.000000
					}
				}
			}
		}
	}
}
MOTION
Frames: 5
Frame Time: 0.032
0.0 0.0 0.0 -173.717051 25.406634 178.068441 8.120578 3.704768 0.985171 0.016697 1.654587 0.023329 3.001797 -0.341882 0.292085 9.043677 -1.506038 1.022494 17.435984 0.321348 1.911546 -7.195843 2.105992 -0.701002 1.076173 7.137276 1.181657 -35.342373 22.347039 -15.421541 -74.071598 -18.096538 54.670562 -1.669743 4.595388 -29.324977 0.793196 -5.510135 -4.959711 -21.738865 7.424489 6.385454 -73.844932 11.071703 -53.772167 26.205313 -12.516130 -0.999612 -63.476213 -2.165758 3.825938 76.973917 -9.445025 0.226557 -9.918927 -2.044935 1.965874 0.744954 -0.139763 0.122336 -63.860308 9.454182 14.923994 66.852444 15.008740 0.214046 -21.576754 -21.391427 -3.875575 -0.372618 -0.407923 -0.417803
0.0 0.0 0.0 -173.681247 25.459030 178.115378 8.120995 3.737507 0.938774 0.000751 1.655472 0.006493 2.964930 -0.337876 0.282769 9.028716 -1.510932 1.008000 17.422476 0.300429 1.828785 -7.169377 2.143714 -0.740263 1.040503 7.157082 1.099418 -35.321934 22.430205 -15.323939 -74.089172 -18.054080 54.652756 -1.656265 4.624311 -29.369465 0.766903 -5.505798 -5.000151 -21.750614 7.401572 6.292856 -73.845369 11.063707 -53.879438 26.258252 -12.506545 -0.995496 -63.520896 -2.135254 3.759202 76.966840 -9.423406 0.190725 -9.944839 -2.041796 1.887835 0.770857 -0.098837 0.088918 -63.910135 9.466014 14.910194 66.833141 14.972126 0.175922 -21.537424 -21.362342 -3.843578 -0.342088 -0.366881 -0.425600
0.0 0.0 0.0 -173.827181 25.479766 178.163791 8.037488 3.781005 0.982129 -0.058515 1.712694 0.004690 2.894784 -0.302152 0.258963 8.955903 -1.475655 1.004090 17.353412 0.356881 1.886322 -7.228631 2.187013 -0.722363 0.941991 7.188746 1.162748 -35.503156 22.517334 -15.281527 -74.110783 -17.985678 54.640311 -1.681598 4.702458 -29.421047 0.680598 -5.450009 -5.012347 -21.851734 7.445666 6.310896 -73.787094 11.076650 -53.756475 26.336624 -12.484565 -0.954477 -63.564363 -2.107037 3.798827 76.932109 -9.395523 0.237376 -9.992072 -2.000358 1.928385 0.720298 -0.056037 0.108082 -64.003927 9.538066 14.932858 66.756008 15.021217 0.243473 -21.601610 -21.345552 -3.885068 -0.392448 -0.323673 -0.417567
0.0 0.0 0.0 -173.726299 25.479259 178.176153 8.112832 3.792842 0.953208 0.012491 1.727818 0.017988 2.968917 -0.268692 0.283130 9.041007 -1.458484 1.033432 17.410193 0.375786 1.854888 -7.151638 2.188423 -0.747608 1.002061 7.216084 1.145137 -35.478212 22.503648 -15.214269 -74.071038 -18.076152 54.712257 -1.604471 4.719931 -29.353298 0.768174 -5.423090 -5.013087 -21.759675 7.480861 6.309924 -73.708990 11.064309 -53.938482 26.407892 -12.408971 -1.036563 -63.514715 -2.121674 3.751576 76.981361 -9.354198 0.183988 -9.930234 -1.980140 1.897547 0.786447 -0.038337 0.076700 -63.941847 9.497639 14.927384 66.813477 15.035876 0.198136 -21.527486 -21.328439 -3.879842 -0.317595 -0.307294 -0.427477
0.0 0.0 0.0 -173.674990 25.472784 178.186644 8.108009 3.787749 0.895906 0.020483 1.739699 0.051522 2.993361 -0.257332 0.332760 9.052382 -1.446317 1.071746 17.420259 0.381133 1.808378 -7.139424 2.190974 -0.780221 1.019141 7.222668 1.105284 -35.466095 22.546272 -15.274673 -74.067070 -18.088709 54.715430 -1.595706 4.724119 -29.306767 0.784401 -5.427348 -4.989019 -21.731833 7.462975 6.347559 -73.642205 11.035593 -53.945357 26.447770 -12.428240 -1.019990 -63.517556 -2.086638 3.731395 76.954129 -9.361097 0.156183 -9.927461 -1.979775 1.860948 0.790527 -0.036946 0.048512 -63.927777 9.505256 14.956210 66.819959 15.034720 0.153641 -21.522607 -21.320210 -3.826514 -0.315227 -0.302244 -0.427212
